<svg id="Coin_Republic_Logo" data-name="Coin Republic Logo" xmlns="http://www.w3.org/2000/svg" xmlns:xlink="http://www.w3.org/1999/xlink" width="140" height="83.167" viewBox="0 0 140 83.167">
  <defs>
    <clipPath id="clip-path">
      <rect id="Rectangle_1758" data-name="Rectangle 1758" width="140" height="83.167" fill="none"/>
    </clipPath>
  </defs>
  <g id="Group_4740" data-name="Group 4740" clip-path="url(#clip-path)">
    <path id="Path_1089" data-name="Path 1089" d="M72.759,47.03c0,3.734-.076,7.2.031,10.665.055,1.743-.539,2.306-2.289,2.3-1.768-.011-2.335-.662-2.314-2.357.065-5.219-.047-10.441.07-15.657.029-1.268-.983-3.269,1.182-3.676,2.082-.393,4.264-.445,5.608,1.912,1.721,3.013,3.578,5.95,5.408,8.9.4.646.934,1.209,2.251,2.887,0-4.1-.077-7.052.028-10,.06-1.637-.945-3.894,2.385-3.86,3.162.032,2.066,2.188,2.1,3.632.107,4.816.124,9.638-.018,14.451-.036,1.234,1.08,3.241-1.13,3.63-1.933.341-4.056.5-5.352-1.684-1.771-2.981-3.634-5.907-5.4-8.888-.521-.879-.7-2.015-2.556-2.251" transform="translate(-13.057 -7.31)" fill="#4b3691"/>
    <path id="Path_1090" data-name="Path 1090" d="M24.979,49.123c0-7.812,3.333-11.449,10.519-11.478s10.966,3.83,10.946,11.175c-.021,7.381-3.876,11.5-10.777,11.507-7.41.009-10.688-3.428-10.688-11.2m16.313,0c.1-4.47-2.336-7.953-5.57-7.962-3.039-.007-5.688,3.35-5.855,7.42-.179,4.383,2.354,7.924,5.651,7.9,3.426-.028,5.674-2.891,5.774-7.355" transform="translate(-4.793 -7.224)" fill="#4b3691"/>
    <path id="Path_1091" data-name="Path 1091" d="M98.133,86.105c0-2.672.112-5.351-.034-8.016-.118-2.165.788-2.831,2.827-2.713,2.137.124,4.294-.084,6.429.054,4.605.3,6.882,4.251,4.59,8.219-.814,1.409-1.376,1.988.075,3.509,3.312,3.472,1.5,8.748-3.16,9.935a9.011,9.011,0,0,1-1.586.187c-9.141.641-9.141.64-9.141-11.176m4.843,4.757c.228,1.2-.658,3.115,1.741,3.138a3.922,3.922,0,0,0,3.974-3.2c.138-1.518-1.865-2.563-3.695-2.811-2.49-.337-1.91,1.461-2.02,2.87m-.022-9.018c.213.921-.356,2.624,1.569,2.415,1.419-.154,2.941-.705,2.965-2.634.025-2-1.426-2.392-2.958-2.481-1.983-.114-1.4,1.469-1.576,2.7" transform="translate(-18.822 -14.461)" fill="#4b3691"/>
    <path id="Path_1092" data-name="Path 1092" d="M24.356,11.808c0-2.81.076-5.622-.028-8.428-.069-1.892.614-2.607,2.553-2.6,1.961.009,2.181,1.048,2.08,2.557a19.212,19.212,0,0,1-.023,2c-.614,3.478.684,4.487,4.281,4.464,3.635-.023,5.169-.945,4.515-4.63-.115-.648.038-1.34-.026-2C37.547,1.5,38.15.752,39.958.789c1.7.035,2.4.613,2.381,2.355q-.092,8.628,0,17.257c.019,1.711-.608,2.365-2.344,2.391-1.764.026-2.445-.63-2.291-2.35.083-.929-.113-1.892.036-2.8.592-3.613-.769-4.7-4.488-4.666-3.511.028-4.939.874-4.325,4.431a32.046,32.046,0,0,1,.04,3.206c.1,1.512-.461,2.19-2.053,2.171-1.531-.018-2.624-.228-2.575-2.142.074-2.942.019-5.886.018-8.829" transform="translate(-4.667 -0.15)" fill="#4b3691"/>
    <path id="Path_1093" data-name="Path 1093" d="M70.23,83.984c0-2.257.082-4.132-.023-6s.525-2.643,2.5-2.633c1.893.011,2.644.624,2.581,2.558-.108,3.337-.174,6.687.02,10.017.162,2.773.391,6.229,4.147,6.111,3.564-.112,3.941-3.472,4.083-6.274.176-3.465.1-6.946.023-10.418-.037-1.691.835-1.983,2.25-1.96,1.368.023,2.4.248,2.33,1.942-.2,4.793.5,9.619-.457,14.38-.9,4.445-2.907,5.89-8.038,5.916-6.184.031-7.86-1.093-8.986-5.666-.686-2.784-.262-5.578-.428-7.975" transform="translate(-13.47 -14.459)" fill="#4b3691"/>
    <path id="Path_1094" data-name="Path 1094" d="M7.575,88.385c0,2.588-.086,4.45.025,6.3.112,1.886-.573,2.609-2.525,2.6-2.009-.012-2.049-1.121-2.039-2.586.036-5.616,0-11.233.028-16.849,0-.869-.336-2.281.924-2.291,3.83-.03,7.855-1.125,11.427.94,2.766,1.6,3.048,6.334.621,9.246-1.223,1.466-1.943,2.5-.186,4.091a9.054,9.054,0,0,1,2.474,3.548c.427,1.228,2.961,2.509,1.19,3.52A3.987,3.987,0,0,1,13.9,95.664c-1.168-1.919-1.7-4.251-3.537-5.736a22.523,22.523,0,0,0-2.786-1.544m1.72-9.335c-2.826.051-1.689,2.184-1.856,3.534C7.263,84,7.43,85.424,9.457,85.144c1.854-.258,3.54-1.076,3.464-3.177s-1.746-2.794-3.627-2.916" transform="translate(-0.581 -14.438)" fill="#4b3691"/>
    <path id="Path_1095" data-name="Path 1095" d="M47.292,86.427c0-2.529.189-5.077-.049-7.584-.279-2.937.97-3.745,3.667-3.482,1.985.193,4.018-.085,6,.14A6.909,6.909,0,0,1,63.1,82.2c.109,3.523-2.987,7.425-6.542,7.256-3.638-.173-4.757.994-4.277,4.427.236,1.687.419,3.446-2.4,3.464-2.693.017-2.641-1.474-2.6-3.333.057-2.529.014-5.059.014-7.589m6.726-7.3c-2.592-.174-1.973,1.83-1.789,3.022.217,1.4-1.424,4.06,1.426,3.962,1.83-.062,4.279-.964,4.209-3.822-.061-2.528-2.031-2.765-3.846-3.163" transform="translate(-9.058 -14.452)" fill="#4b3691"/>
    <path id="Path_1096" data-name="Path 1096" d="M53.23,11.659V9.651c0-9.436,1.57-10.7,10.984-9.023,1.1.2,1.678.5,1.719,1.689.049,1.435-.66,1.876-1.955,1.843-1.207-.031-2.417.062-3.622,0-2.036-.1-2,1.248-2,2.655s-.053,2.769,1.987,2.659c.937-.051,1.879.022,2.817,0,1.306-.027,2.474.075,2.426,1.834-.048,1.82-1.364,1.628-2.576,1.688-2.2.111-5.057-1-4.737,3.211.164,2.154.827,2.832,2.848,2.614,1.061-.114,2.146,0,3.218-.023,1.21-.03,2.062.2,2.079,1.717.019,1.573-.677,2.2-2.179,2.111a3.039,3.039,0,0,0-.4,0c-10.611.76-10.611.76-10.611-10.976" transform="translate(-10.214 0)" fill="#4b3691"/>
    <path id="Path_1097" data-name="Path 1097" d="M1.044,48.977c-.806-7.4,6.449-13.442,15.847-11,2.087.543,1.733,1.875,1.472,3.023-.427,1.872-1.657.885-2.809.57-4.761-1.3-8.472,1.067-9.473,5.916a7.164,7.164,0,0,0,5.488,8.79c1.448.338,2.618-.267,3.914-.467,1.059-.163,2.46-1.3,2.908.659.343,1.5.194,2.888-1.817,3.354-7.53,1.744-15.8-.247-15.529-10.85" transform="translate(-0.189 -7.182)" fill="#4b3691"/>
    <path id="Path_1098" data-name="Path 1098" d="M33.428,97.287c-6.477,0-6.478,0-6.477-6.544,0-4.277.082-8.556-.036-12.83-.053-1.926.6-2.623,2.525-2.536,2.675.121,5.36.072,8.039.017,1.571-.032,2.128.662,2.091,2.179-.037,1.592-1.055,1.594-2.181,1.583-1.207-.012-2.421.091-3.616-.018-2.155-.2-1.9,1.227-1.931,2.582-.034,1.459.073,2.359,2.019,2.63,1.787.25,5.37-2.027,5.089,2.046-.228,3.312-3.406,1.337-5.148,1.478-2.478.2-1.918,1.692-1.929,3.041-.011,1.38-.492,3.126,1.963,2.974,1.335-.083,2.68.015,4.02-.011,1.2-.023,2.07.192,2.07,1.709s-.878,1.724-2.075,1.7c-1.473-.026-2.948-.006-4.422,0" transform="translate(-5.164 -14.463)" fill="#4b3691"/>
    <path id="Path_1099" data-name="Path 1099" d="M162.949,97.5c-7.663,0-10.976-3.291-10.987-10.917-.012-7.469,3.944-11.743,11.154-11.557,2.179.056,5.867-1.877,5.954,2.9.03,1.618-.47,2.053-2.185,1.553-4.537-1.324-7.227-.331-9,3a8.392,8.392,0,0,0,1.727,9.844c2.1,2.156,4.4,2.038,6.951,1.1.79-.29,1.991-1.769,2.412.265.252,1.215.545,2.686-1.257,3.342a14.516,14.516,0,0,1-4.765.476" transform="translate(-29.159 -14.331)" fill="#4b3691"/>
    <path id="Path_1100" data-name="Path 1100" d="M5.968,13.2A46.214,46.214,0,0,1,6,8.389c.3-2.916-.379-4.683-3.825-4.107C1.056,4.469.064,4.255,0,2.685-.066.895,1,.79,2.325.8,6.351.816,10.376.8,14.4.8c1.114,0,2.2.008,2.307,1.54C16.828,4.037,15.8,4.5,14.434,4.29c-3.135-.474-3.475,1.228-3.376,3.754.158,4.009-.007,8.029.064,12.043.031,1.751-.347,2.727-2.415,2.751-2.115.024-2.891-.719-2.769-2.809.133-2.268.031-4.549.031-6.825" transform="translate(0 -0.153)" fill="#4b3691"/>
    <path id="Path_1101" data-name="Path 1101" d="M122.026,86.36c0-2.665.048-5.331-.018-7.995-.044-1.784.087-3.074,2.485-3.048,2.306.024,2.148,1.375,2.14,2.891-.02,4.264.116,8.533-.056,12.79-.093,2.309.7,3.156,2.946,2.862a13.955,13.955,0,0,1,2.4-.008c1.261.056,2.83-.386,2.755,1.8-.075,2.22-1.727,1.586-2.918,1.63-9.737.364-9.737.351-9.737-9.327v-1.6" transform="translate(-23.411 -14.452)" fill="#4b3691"/>
    <path id="Path_1102" data-name="Path 1102" d="M146.46,86.3c0,2.932-.09,5.868.032,8.794.079,1.877-.817,2.23-2.419,2.2-1.489-.03-2.553-.122-2.522-2.094q.136-8.793,0-17.589c-.03-1.871.819-2.23,2.422-2.2,1.489.029,2.6.123,2.52,2.1-.116,2.927-.03,5.862-.03,8.794" transform="translate(-27.161 -14.471)" fill="#4b3691"/>
    <path id="Path_1103" data-name="Path 1103" d="M60.725,49.261c0,2.66-.113,5.327.037,7.979.115,2.015-.423,2.788-2.619,2.773S55.86,58.956,55.877,57.3c.059-5.586.115-11.175-.024-16.758-.053-2.116.895-2.326,2.626-2.341s2.348.535,2.278,2.279c-.116,2.921-.032,5.851-.032,8.777" transform="translate(-10.717 -7.331)" fill="#4b3691"/>
  </g>
</svg>
