<svg id="Crypto_Adventure_Logo" data-name="Crypto Adventure Logo" xmlns="http://www.w3.org/2000/svg" xmlns:xlink="http://www.w3.org/1999/xlink" width="481.509" height="52" viewBox="0 0 481.509 52">
  <defs>
    <clipPath id="clip-path">
      <rect id="Rectangle_1765" data-name="Rectangle 1765" width="481.509" height="52" fill="none"/>
    </clipPath>
  </defs>
  <g id="Group_4746" data-name="Group 4746" clip-path="url(#clip-path)">
    <path id="Path_1120" data-name="Path 1120" d="M0,12.277c1.056-.108,1-1.1,1.313-1.739C4.095,4.912,8.581,1.706,14.872,1.507c6.384-.2,12.778-.045,19.2-.045-2.235,7.189-4.563,8.984-11.558,8.984-13.256,0-13.589.336-13.589,13.718,0,3.6-.073,7.194.019,10.787.117,4.594,2.653,7.121,7.246,7.141,12.023.051,24.053.24,36.067-.1,4.32-.122,7.111,1.036,8.823,4.946.568,1.3,1.884,2.221,2.056,3.813-1.066.886-2.311.442-3.435.445-12.959.039-25.933-.369-38.871.156C11.373,51.734,4.2,49.1,0,40.277Z" transform="translate(0 -0.277)" fill="#4b3691"/>
    <path id="Path_1121" data-name="Path 1121" d="M158.925,55.047a3.33,3.33,0,0,1-1.535-4.366c.663-1.939,2.227-.791,3.411-.784,5.277.031,8.229-4.346,6.166-9.251-2.267-5.39-4.734-10.7-6.809-16.164-1.111-2.922-2.674-4.423-5.891-3.885-3.506.587-5.588,2.593-5.727,6.123-.178,4.523-.153,9.058-.041,13.584.051,2.03-.488,2.869-2.678,2.77-1.93-.087-3.256-.057-3.2-2.681.165-7.189.034-14.384.081-21.577.007-1.065-.56-2.726,1.266-2.808,1.457-.065,3.628-1,4.278.744.754,2.029,1.3.957,2.073.347,3.638-2.881,7.725-1.1,11.622-1.059,1.283.014,1.275,1.554,1.653,2.476,2.454,5.974,4.846,11.973,7.535,18.649,2.48-6.2,4.62-11.609,6.808-17,1.869-4.6,1.893-4.594,7.659-3.855-3.974,9.232-8.046,18.306-11.778,27.517-1.946,4.8-4.34,8.995-9.281,11.221Z" transform="translate(-28.116 -3.047)" fill="#4b3691"/>
    <path id="Path_1122" data-name="Path 1122" d="M374.759,0q.086,18.739.182,37.476c.008,1.464-.094,2.654-2.07,2.522-1.811-.121-4.073.574-3.536-3.049-4.085,2.805-8,4.375-12.618,3.241a13.224,13.224,0,0,1-7.649-4.665c-4.193-5.359-4.151-13.432.1-18.483,4.557-5.409,11.564-5.99,19.968-1.574V0Zm-5.606,26.481c.067-5.351-3.609-9.177-8.8-9.162a8.684,8.684,0,0,0-8.8,8.848,8.674,8.674,0,0,0,8.479,9.121c5.394.119,9.061-3.42,9.129-8.807" transform="translate(-68.199 0)" fill="#4b3691"/>
    <path id="Path_1123" data-name="Path 1123" d="M593.06,31.85c-6.143-.055-12.285-.131-18.428-.143-.846,0-2.022-.453-2.43.744-.336.981.381,1.761.96,2.488,3.15,3.953,7.463,3.592,11.772,3.056a33.317,33.317,0,0,0,3.456-.985c.888-.211,2.14-1.644,2.613.012.377,1.323,1.5,3.362-.443,4.319-5.672,2.795-11.514,3.256-17.336.346-5.224-2.612-7.467-7.015-7.355-12.7A13.233,13.233,0,0,1,577.356,15.7c7.219-1.113,12.473,2,15.01,8.881a3.616,3.616,0,0,0,.693.874Zm-13.342-4.792c1.724,0,3.456-.1,5.17.022,3.123.222,3.042-1.194,1.755-3.241-1.656-2.634-4.173-3.475-7.166-3.36a7.9,7.9,0,0,0-6.905,3.961c-1,1.664-.691,2.734,1.577,2.634,1.853-.082,3.712-.017,5.569-.015" transform="translate(-111.551 -3.051)" fill="#4b3691"/>
    <path id="Path_1124" data-name="Path 1124" d="M80.688,50.863c-7.1,1.508-11.819.039-15.154-6.524C62.245,37.867,57.6,32.078,53.208,25.467l-4.317,9.458c-1.426-7.785-2.672-14.591-4.089-22.332-5.2,7.9-10.341,14.854-14.492,22.349-2.574,4.648-5.905,5.311-10.428,4.933-3.04-.255-3.3-1.126-1.66-3.56,6.087-9.055,12.469-17.953,17.916-27.383C42.013-1.239,47.473-.9,53.592,9.153c8.159,13.4,17.153,26.3,25.781,39.425.417.633.76,1.315,1.315,2.285" transform="translate(-3.395 -0.287)" fill="#4b3691"/>
    <path id="Path_1125" data-name="Path 1125" d="M338.53,39.979c-4.623,1.4-7.21-.1-8.009-4.526-.462-2.564-2.034-3.277-4.572-3.146a103.2,103.2,0,0,1-12.4-.015c-2.925-.2-4.59.826-5.132,3.561-.866,4.368-3.415,5.523-7.816,4.026,3.118-7.6,6.216-15.2,9.348-22.774,1.725-4.172,3.639-8.272,5.211-12.5.816-2.2,2.161-2.62,4.255-2.584,2,.034,3.543.2,4.435,2.4,4.8,11.794,9.705,23.544,14.678,35.561m-10.989-12.5L319.584,8.621c-2.61,6.016-4.922,11.324-7.215,16.641-.789,1.83.055,2.278,1.8,2.246,4.231-.076,8.465-.025,13.372-.025" transform="translate(-59.259 -0.398)" fill="#4b3691"/>
    <path id="Path_1126" data-name="Path 1126" d="M119.9,1.4a57.029,57.029,0,0,1,8.2,1.186c2.4.541,3.274,1.572,2.911,4.12-.272,1.911-.531,2.485-2.593,1.8a25.622,25.622,0,0,0-12.6-1.138c-7.249,1.256-11.826,6.153-12.094,13.2-.257,6.781,4.257,12.41,11.227,14.044a25.32,25.32,0,0,0,13.411-.719c.833-.253,2.294-1.97,2.755.319.287,1.427,1.282,3.107-.343,4.413-5.978,4.806-22.579,2.162-28.678-4.546-6.441-7.085-6.448-19.012-.04-25.927,4.689-5.06,10.73-6.641,17.844-6.75" transform="translate(-19.173 -0.277)" fill="#4b3691"/>
    <path id="Path_1127" data-name="Path 1127" d="M202.642,16.622c.165,2.608,1.452,1.419,2.6.768,5.4-3.074,10.839-3,15.744.715,4.934,3.733,6.278,9.052,4.952,15.006a13.622,13.622,0,0,1-19.5,8.981c-1.017-.527-1.984-1.153-3.586-2.092,0,4.229-.1,7.9.039,11.563.079,2.067-.568,2.786-2.7,2.739-1.964-.042-2.869-.426-2.85-2.637.092-10.914.135-21.83-.006-32.742-.055-4.238,2.692-2.888,4.888-2.868a1.7,1.7,0,0,0,.429.567m9.292,21.758a8.594,8.594,0,0,0,8.908-8.72,9.08,9.08,0,0,0-8.9-9.305,8.871,8.871,0,0,0-8.827,9.292,8.413,8.413,0,0,0,8.819,8.734" transform="translate(-38.899 -2.995)" fill="#4b3691"/>
    <path id="Path_1128" data-name="Path 1128" d="M422.411,32.086c1.365,3.816,3.846,5.707,7.48,6.1a19.023,19.023,0,0,0,9.061-1.13c.939-.365,2.4-1.578,2.747.55.209,1.27,1.22,2.682-.589,3.916-5.079,3.468-15.462,2.566-20.343-1.933-4.812-4.437-5.671-11.957-2.044-17.93,3.073-5.063,9.427-7.348,15.824-5.691,5.224,1.354,9.032,6.484,9.235,12.22.086,2.441-.533,3.639-3.339,3.546-5.608-.185-11.227-.031-16.842,0a6.164,6.164,0,0,0-1.192.353m7.794-5.036c1.869,0,3.745-.1,5.6.023,3.089.213,2.6-1.334,1.6-3.09-2.459-4.322-9.716-4.815-13.2-.894-.79.89-1.843,1.936-1.514,3.12.44,1.58,2.032.7,3.106.808,1.455.141,2.934.035,4.4.034" transform="translate(-82.104 -3.043)" fill="#4b3691"/>
    <path id="Path_1129" data-name="Path 1129" d="M284.709,29.356a14.44,14.44,0,0,1-28.874.055c-.03-7.94,6.054-14.041,14.175-14.216a14.28,14.28,0,0,1,14.7,14.162m-5.629-.043a8.824,8.824,0,0,0-17.647.2,8.824,8.824,0,0,0,17.647-.2" transform="translate(-50.434 -2.995)" fill="#4b3691"/>
    <path id="Path_1130" data-name="Path 1130" d="M453.683,29.332c0-3.46-.068-6.923.04-10.38.033-1.036-.772-2.733,1.009-2.961,1.446-.185,3.622-.99,4.315.742.932,2.326,1.663.711,2.5.264,8.567-4.552,16.862-.078,17.36,9.515.242,4.646-.046,9.318.112,13.971.079,2.312-1.048,2.481-2.911,2.559-2.217.093-2.706-.818-2.652-2.8.108-3.989.143-7.989-.017-11.976-.207-5.178-2.488-7.631-6.766-7.64-4.616-.01-7.376,2.8-7.537,7.919-.125,3.989-.147,7.989,0,11.976.09,2.373-1.168,2.46-2.979,2.511-1.925.054-2.573-.615-2.515-2.517.113-3.723.033-7.452.032-11.179" transform="translate(-89.414 -2.998)" fill="#4b3691"/>
    <path id="Path_1131" data-name="Path 1131" d="M536.673,26.1c-.327,2.9.565,6.376-.7,9.766C533.9,41.4,528.4,44.507,522.154,43.51c-6.482-1.034-10.132-4.959-10.267-11.237-.1-4.528.065-9.061-.059-13.588-.059-2.13.764-2.741,2.806-2.747,1.965-.006,2.916.388,2.823,2.617-.161,3.857-.078,7.725-.035,11.589.059,5.282,2.391,8.1,6.683,8.178,4.466.079,6.926-2.786,7.007-8.28.055-3.729.131-7.465-.031-11.189-.1-2.354.857-2.885,3.044-2.931,2.3-.049,2.67.955,2.574,2.865-.113,2.259-.026,4.528-.026,7.313" transform="translate(-100.898 -3.139)" fill="#4b3691"/>
    <path id="Path_1132" data-name="Path 1132" d="M248.552,36.3c1.6-.274,3.215-.613,3.521,2.1.312,2.753-1.452,2.629-3.181,2.845-7.842.98-11.647-2.209-11.838-10.015-.075-3.062-.079-6.13.006-9.191.058-2.079-.044-3.788-2.885-3.394-1.68.234-2-.868-1.952-2.243.041-1.217-.075-2.694,1.714-2.47,3.6.451,3.444-1.833,3.337-4.2-.043-.931.022-1.866,0-2.8-.057-2.193,1.564-1.678,2.812-1.738s2.509-.132,2.4,1.717a13.729,13.729,0,0,1-.008,1.6c-.764,4.234.681,6.221,5.24,5.417,1.372-.242,2.924-.445,3.03,1.937.1,2.34-.754,3.209-2.967,2.8-4.362-.809-5.606,1.186-5.122,5.226.283,2.364,0,4.791.064,7.187.112,4.269,1.3,5.34,5.832,5.235" transform="translate(-45.778 -1.017)" fill="#4b3691"/>
    <path id="Path_1133" data-name="Path 1133" d="M397.651,37.466c2.6-6.958,4.885-12.974,7.083-19.022.6-1.643,1.269-2.586,3.346-2.6,2.833-.015,3.528.639,2.378,3.377-2.988,7.113-5.932,14.253-8.565,21.5-.984,2.707-2.8,2.229-4.747,2.368a3.261,3.261,0,0,1-3.853-2.47c-2.642-7.108-5.573-14.109-8.253-21.2-.38-1.006-2.23-2.654-.39-3.243,1.687-.54,4.4-1.393,5.534,1.426,1.24,3.082,2.317,6.229,3.483,9.342,1.2,3.193,2.414,6.378,3.984,10.521" transform="translate(-75.67 -3.08)" fill="#4b3691"/>
    <path id="Path_1134" data-name="Path 1134" d="M502.342,36.263c1.762-.366,3.32-.337,3.517,2.466.214,3.053-2.095,2.3-3.513,2.508-7.459,1.081-11.47-2.419-11.54-9.907-.026-2.8-.067-5.594.014-8.388.072-2.522.3-4.982-3.538-4.393-1.272.2-1.523-.845-1.451-1.854.07-.98-.4-2.727.973-2.622,5.254.4,4.046-3.254,3.944-6.028-.087-2.354.828-2.9,3.032-2.906,2.35-.006,2.727,1.171,2.486,2.987-.544,4.094.275,6.8,5.345,5.769,1.612-.329,2.725.045,2.777,2.211.055,2.326-1.048,2.808-2.9,2.482-4.377-.771-5.618,1.236-5.134,5.265a64.756,64.756,0,0,1,.054,6.784c.061,4.64,1.146,5.705,5.938,5.624" transform="translate(-95.769 -1.014)" fill="#4b3691"/>
    <path id="Path_1135" data-name="Path 1135" d="M553.422,19.055c2.424-2.733,4.828-3.906,7.854-3.533,1.54.189,2.9.334,2.67,2.508-.2,1.855-.571,2.7-2.873,2.612-5.149-.2-7.553,2.293-7.685,7.481-.105,4.123-.145,8.254.023,12.372.091,2.253-.875,2.628-2.82,2.584-1.843-.042-2.987-.226-2.95-2.548.118-7.183.031-14.37.051-21.555,0-1.4-.409-3.146,1.964-3.061,1.823.065,4.25-.851,3.766,3.14" transform="translate(-107.958 -3.047)" fill="#4b3691"/>
    <path id="Path_1136" data-name="Path 1136" d="M203.413,16.22c.361-.233.718-.307.971.121a4.107,4.107,0,0,1-.541.446,1.71,1.71,0,0,1-.43-.567" transform="translate(-40.1 -3.161)" fill="#4b3691"/>
  </g>
</svg>
