<svg id="Decrypt_Logo" data-name="Decrypt Logo" xmlns="http://www.w3.org/2000/svg" xmlns:xlink="http://www.w3.org/1999/xlink" width="276" height="91.822" viewBox="0 0 276 91.822">
  <defs>
    <clipPath id="clip-path">
      <rect id="Rectangle_1766" data-name="Rectangle 1766" width="276" height="91.822" fill="none"/>
    </clipPath>
  </defs>
  <g id="Group_4748" data-name="Group 4748" clip-path="url(#clip-path)">
    <path id="Path_1137" data-name="Path 1137" d="M508.419,76.779c-1.072,0-2.044-.023-3.014.008-.62.019-.852-.232-.841-.841.023-1.325.018-2.652,0-3.977-.007-.544.221-.769.763-.759,1,.018,1.993.005,3.09.005v-.88c0-2.277.017-4.553-.01-6.829-.009-.689.248-.924.927-.915q3.3.042,6.611,0c.661-.008.873.25.866.89-.025,2.276-.01,4.553-.01,6.829v.9h4.879v5.6h-4.836c-.017.345-.041.61-.042.875q0,6,0,12.008c0,1.421.45,1.868,1.9,1.876.751,0,1.505-.058,2.251,0,.224.018.6.338.607.526.044,2.07.028,4.141.028,6.258a20.215,20.215,0,0,1-8.388.1,5.769,5.769,0,0,1-4.645-5.8c-.126-4.924-.1-9.851-.135-14.777,0-.323,0-.645,0-1.091" transform="translate(-245.682 -30.476)" fill="#4b3691"/>
    <path id="Path_1138" data-name="Path 1138" d="M34.6,91.822c-1.34-.252-2.695-.443-4.016-.769a20.813,20.813,0,0,1-9.995-5.769C14.68,79.3,8.695,73.4,2.761,67.438a4.91,4.91,0,0,1-1.049-1.6A26.019,26.019,0,0,1,.274,52.573c1.189-9.094,5.26-16.9,10.882-24,1.224-1.544,2.557-3,3.933-4.608L7.725,16.795c.779-.761,1.478-1.467,2.2-2.146A56.507,56.507,0,0,1,29.528,2.3,37.1,37.1,0,0,1,41.631,0,24.5,24.5,0,0,1,51.6,1.823a3.555,3.555,0,0,1,1.1.746c5.6,5.586,11.162,11.206,16.781,16.771a27.4,27.4,0,0,1,4.908,5.832,23.734,23.734,0,0,1,2.807,13.97c-.743,8.912-4.506,16.6-9.826,23.612-1.434,1.89-3.029,3.657-4.592,5.531l7.273,7.039c-1.083,1.116-1.936,2.094-2.888,2.963-6.176,5.641-13.1,10.02-21.244,12.233-2.041.555-4.168.787-6.255,1.171a3.052,3.052,0,0,0-.4.131ZM31.408,36.7c.147-.131.317-.278.482-.429a45.1,45.1,0,0,1,11.983-8.149c4.54-2.049,9.227-3.481,14.3-2.626a9.637,9.637,0,0,1,7.647,5.493,15.462,15.462,0,0,1,.857,9.544,35.972,35.972,0,0,1-6.635,14.853c-1.39,1.915-2.948,3.709-4.36,5.47l5.458,5.459c-.033.019.019,0,.051-.031a52.519,52.519,0,0,0,11.063-16.8c2.122-5.324,3.293-10.822,2.3-16.561-1.271-7.342-5.418-12.333-12.6-14.588a24.734,24.734,0,0,0-12.692-.263,44.516,44.516,0,0,0-17.279,8.012c-2.148,1.58-4.162,3.341-6.205,4.995L31.408,36.7m-.2,3.785a1.889,1.889,0,0,0-.2.165A52.874,52.874,0,0,0,20.256,56.866c-2.272,5.521-3.527,11.225-2.462,17.2,1.268,7.118,5.288,12.019,12.231,14.311,4.785,1.58,9.628,1.267,14.438.05A48.307,48.307,0,0,0,63.843,78c.91-.769,1.778-1.589,2.631-2.355L60.932,70.1c-.132.117-.284.247-.43.382A45.691,45.691,0,0,1,48.74,78.564c-4.314,2-8.789,3.305-13.629,2.908a10.036,10.036,0,0,1-9.2-7.1,16.253,16.253,0,0,1-.378-7.784,35.687,35.687,0,0,1,4.807-12.268,49.817,49.817,0,0,1,6.4-8.306l-5.534-5.527m-8.822-8.7-5.745-5.794a.277.277,0,0,0-.088.054A53.218,53.218,0,0,0,4.162,46.184,32.1,32.1,0,0,0,2.847,61.412C3.391,64.8,5.41,67,7.953,69.069a29.985,29.985,0,0,1-.185-9.114,43.8,43.8,0,0,1,5.392-15.7,63.945,63.945,0,0,1,9.227-12.463m-5.26-9.373.566-.518A59.51,59.51,0,0,1,33.682,11.138c5.87-2.6,11.96-4.087,18.439-3.516.785.069,1.566.189,2.349.286l.124-.165a30.179,30.179,0,0,1-2.364-2.27,7.218,7.218,0,0,0-3.879-2.23,28.3,28.3,0,0,0-15.109.427A50.336,50.336,0,0,0,14.407,13.9c-1.064.885-2.079,1.829-3.08,2.713l5.8,5.8m23.7,23.631,5.8,5.811A40.922,40.922,0,0,0,56.4,35.708a23.411,23.411,0,0,0,.877-7.923,18.3,18.3,0,0,0-5.185.193c-.174.038-.367.315-.424.516a34.66,34.66,0,0,1-6.089,11.78c-1.535,2-3.2,3.9-4.751,5.772m11.163,15.14-5.95-5.877c-.028.023-.125.094-.212.177-5.062,4.793-10.584,8.842-17.419,10.778a.618.618,0,0,0-.4.348,15.028,15.028,0,0,0-.129,5.269c9.785.234,17.22-4.6,24.107-10.7M33.076,38.472l5.852,5.9c4.311-4.547,8.09-9.459,10.164-15.686a41.706,41.706,0,0,0-16.016,9.781M28.725,63.665c6.228-2.1,11.143-5.835,15.593-10.071L38.464,47.7a41.6,41.6,0,0,0-9.739,15.96" transform="translate(0 0)" fill="#4b3691"/>
    <path id="Path_1139" data-name="Path 1139" d="M181.553,79.733q0-8.625,0-17.251c0-1.009.046-1.053,1.064-1.053,4.33,0,8.66-.034,12.99.012a26.253,26.253,0,0,1,8.049,1.221,14.541,14.541,0,0,1,10.055,10.881,24.479,24.479,0,0,1-.342,13.247c-1.921,6.321-6.375,9.776-12.756,10.889a27.182,27.182,0,0,1-4.407.327c-4.529.041-9.06.015-13.59.014-1.04,0-1.063-.021-1.063-1.037q0-8.626,0-17.251m9.721-10.176V83.094q0,3.189,0,6.378c0,.366-.028.712.519.685,1.947-.094,3.914-.029,5.838-.284a7.322,7.322,0,0,0,6.637-5.835,18.03,18.03,0,0,0,.156-8.106,7.375,7.375,0,0,0-6.305-6.105c-2.226-.257-4.489-.19-6.843-.271" transform="translate(-88.402 -29.905)" fill="#4b3691"/>
    <path id="Path_1140" data-name="Path 1140" d="M458.813,79.1c.042.673.078,1.257.114,1.846a22.807,22.807,0,0,1,2.466-1.47c4.923-2.168,12.28-1.06,15.211,6.06a18.013,18.013,0,0,1-.683,15.587c-3.219,6.314-10.664,6.958-15.083,4.329-.275-.164-.559-.312-.925-.515-.016.331-.038.591-.039.85,0,2.95-.018,5.9.011,8.851.007.716-.23.971-.952.96q-3.379-.049-6.758,0c-.691.009-.917-.244-.916-.921q.019-17.326,0-34.652c0-.673.227-.941.916-.932,2.176.026,4.352.01,6.638.01M469.8,92.448a9.96,9.96,0,0,0-1.39-5.661,4.185,4.185,0,0,0-3.532-2.082,4.448,4.448,0,0,0-4.38,3.056,15.131,15.131,0,0,0-.957,4.123,10.551,10.551,0,0,0,.967,6.132,4.481,4.481,0,0,0,4.037,2.557,4.168,4.168,0,0,0,3.846-2.3,10.948,10.948,0,0,0,1.409-5.823" transform="translate(-219.727 -38.217)" fill="#4b3691"/>
    <path id="Path_1141" data-name="Path 1141" d="M258.182,94.478a5.653,5.653,0,0,0,3.883,5.739c2.634.7,6.149.353,8.46-4.576q.981.508,1.96,1.015c1.266.653,2.529,1.311,3.8,1.954.457.231.637.489.331,1-5.015,8.328-14.2,8.7-19.839,6.154-4.163-1.884-6.325-5.336-7.018-9.719a17.572,17.572,0,0,1,1.482-10.964,12.174,12.174,0,0,1,10.23-6.868,15,15,0,0,1,8.754,1.42c3.61,1.9,5.479,5.1,6.321,8.937.356,1.624.423,3.312.632,4.97.092.734-.227.955-.942.952-5.683-.021-11.366-.011-17.05-.011h-1.006m10.1-5.556a4.525,4.525,0,0,0-4.49-4.592c-2.852-.081-5.419,2.1-5.378,4.592Z" transform="translate(-121.478 -38.026)" fill="#4b3691"/>
    <path id="Path_1142" data-name="Path 1142" d="M409.8,97.275c.178-.738.362-1.474.532-2.213,1.117-4.867,2.241-9.733,3.336-14.6.13-.581.328-.814.973-.8,2.427.045,4.856.014,7.285.021.77,0,.931.194.706.884Q417.777,95.4,412.9,110.23a11.678,11.678,0,0,1-.968,2.1,7.138,7.138,0,0,1-6.909,3.775c-1.726-.052-3.455-.026-5.182,0-.678.01-.934-.243-.92-.929q.05-2.55,0-5.1c-.015-.7.263-.927.931-.9,1,.035,2,.017,3,.007,1.733-.018,2.454-.892,1.984-2.569-.7-2.474-1.475-4.925-2.236-7.381q-2.858-9.227-5.73-18.449c-.3-.958-.192-1.108.789-1.109,2.4,0,4.807.014,7.21-.013.551-.006.762.161.888.713,1.249,5.526,2.533,11.046,3.808,16.566.025.109.061.215.092.323l.139.011" transform="translate(-193.175 -38.786)" fill="#4b3691"/>
    <path id="Path_1143" data-name="Path 1143" d="M320.165,78.309a12.862,12.862,0,0,1,11.289,5.956c.5.754.46.881-.324,1.329-1.563.892-3.141,1.758-4.686,2.681-.626.375-.94.269-1.285-.377a5.146,5.146,0,0,0-5.861-2.841,4.122,4.122,0,0,0-2.623,1.99,10.387,10.387,0,0,0-.057,10.841,4.69,4.69,0,0,0,6.959,1.407,8.554,8.554,0,0,0,1.829-2.313c.324-.52.521-.757,1.139-.423,1.649.891,3.325,1.732,5,2.583.433.221.713.463.388.983-2.905,4.66-7.033,7.195-12.6,6.952-7.159-.312-12.106-5.179-12.759-12.313a17.494,17.494,0,0,1,1.152-8.524c2.128-5.07,6.074-7.549,11.465-7.927.323-.023.651,0,.976,0" transform="translate(-149.229 -38.126)" fill="#4b3691"/>
    <path id="Path_1144" data-name="Path 1144" d="M369.578,81.8a13.316,13.316,0,0,1,6.54-2.567c1.07-.147,1.181-.043,1.182,1.012q0,2.775,0,5.551v.837c-1.349.225-2.629.433-3.9.655a8.381,8.381,0,0,0-1.016.253c-1.9.581-2.56,1.469-2.562,3.444q-.007,7.351,0,14.7c0,.949-.032.983-.966.984-2.2,0-4.406-.017-6.608.012-.642.008-.89-.195-.889-.857q.022-12.752,0-25.5c0-.644.237-.893.885-.887q3.229.033,6.458,0c.636-.007.939.2.889.864-.033.439-.006.881-.006,1.5" transform="translate(-175.949 -38.553)" fill="#4b3691"/>
  </g>
</svg>
