<svg id="Hackernoon_Logo" data-name="Hackernoon Logo" xmlns="http://www.w3.org/2000/svg" xmlns:xlink="http://www.w3.org/1999/xlink" width="518.5" height="64.49" viewBox="0 0 518.5 64.49">
  <defs>
    <clipPath id="clip-path">
      <rect id="Rectangle_1756" data-name="Rectangle 1756" width="518.5" height="64.49" fill="#4b3691"/>
    </clipPath>
  </defs>
  <g id="Group_4736" data-name="Group 4736" clip-path="url(#clip-path)">
    <path id="Path_1061" data-name="Path 1061" d="M629.361,56.9c-.1-5.043-.169-10.085-.246-15.128V32.5c.156-3.511-.357-7.046.363-10.564l-.593-.593H592.1V57.283l.887,1.045c11.452,0,22.814,0,34.177.005,1,0,1.987.072,2.566-.987-.116-.134-.364-.287-.367-.445M600.035,28.638H621.62c-.038-.042.049.03.105.122a.586.586,0,0,1,.1.286c0,7.038,0,14.078,0,21.225h-21.8Z" transform="translate(-200.013 -7.21)" fill="#4b3691"/>
    <path id="Path_1062" data-name="Path 1062" d="M660,21.479V58.1c11.345.434,34.328.272,36.966-.23V21.223c-11.2-.43-34.21-.268-36.966.256M689.8,33.04V49.914a1.591,1.591,0,0,1-.228.233.546.546,0,0,1-.284.105c-7.259.005-14.518,0-21.89,0V28.632c-.039.042.025-.052.111-.113a.538.538,0,0,1,.282-.11c7.26-.005,14.52,0,22.009,0Z" transform="translate(-222.95 -7.086)" fill="#4b3691"/>
    <path id="Path_1063" data-name="Path 1063" d="M224.793,24.052V21.195c-14.592-.4-34.2-.25-37.083.268V46.932c0,1.872.036,3.745-.011,5.616-.041,1.641.32,3.322-.557,5.066,1.907,1.06,3.9.453,5.8.549a6.841,6.841,0,0,0,2.057-.571c0-4.884,0-9.494,0-14.1a.588.588,0,0,1,.1-.286,1.633,1.633,0,0,1,.211-.232h21.536c0,4.3.025,8.59-.019,12.884a2.245,2.245,0,0,0,.964,2.275h5.753c1.771-.742,1.227-2,1.23-3.023.032-10.351.019-20.7.019-31.054m-29.8,4.459h21.852c0,1.4-.026,2.7.03,4,.007.183.412.349.632.523V33.7c-1.268.15-.315,1.287-.89,1.887h-21.53c-.029-1.048-.075-2.214-.091-3.381-.017-1.2,0-2.393,0-3.694m22.76,14.458h-.246c-.173-.221-.347-.632-.522-.634.175,0,.348.414.768.633.039.173.07.348.1.524A4.123,4.123,0,0,0,218,46.812c-.8-1.656-.285-2.753-.246-3.843" transform="translate(-63.217 -7.083)" fill="#4b3691"/>
    <path id="Path_1064" data-name="Path 1064" d="M397.367,50.319c0-1.881-.064-3.533.031-5.178a8.677,8.677,0,0,1,.632-2.044h13.906c.109,0,.309.023.316,0a13.05,13.05,0,0,0,0-6.615c-.007-.026-.207,0-.316,0-.009-.913-.709-.65-1.187-.652-4.4-.017-8.791-.01-13.247-.01V28.476h29.513V21.342H390.246V58.217h36.859v-6.9l-.994-.994Z" transform="translate(-131.826 -7.209)" fill="#4b3691"/>
    <path id="Path_1065" data-name="Path 1065" d="M727.155,21.446V58.214c1.3,0,2.492.013,3.688,0,1.171-.016,2.342-.062,3.493-.094V29.409l.923-.923h21.613V58.151h7.262v-36.9c-9.835-.409-34.27-.259-36.98.2" transform="translate(-245.635 -7.096)" fill="#4b3691"/>
    <path id="Path_1066" data-name="Path 1066" d="M292.012,28.536c0-1.41.013-2.608,0-3.8-.016-1.167-.062-2.333-.091-3.366h-36.88c-.425,10.331-.272,34.121.214,36.861h36.76c0-1.414.01-2.723,0-4.032-.013-1.275-.047-2.549-.071-3.8H262.213V28.536Z" transform="translate(-86.069 -7.217)" fill="#4b3691"/>
    <path id="Path_1067" data-name="Path 1067" d="M149.766,35.76H127.335V21.192c-1.42,0-2.617-.013-3.814,0-1.164.016-2.328.061-3.371.09V58.112h7.185c0-4.346.023-8.53-.018-12.714a2.272,2.272,0,0,1,1.087-2.354c6.874,0,13.91,0,20.947,0a.53.53,0,0,1,.28.115,3.053,3.053,0,0,1,.333.365V58.275c1.311,0,2.51.013,3.707,0,1.161-.016,2.322-.06,3.463-.091V21.353h-7.368Z" transform="translate(-40.587 -7.157)" fill="#4b3691"/>
    <path id="Path_1068" data-name="Path 1068" d="M525.225,58.219h7.135c0-5.047-.022-10,.006-14.943.028-4.919-.128-9.845.1-14.756h22.405V58.252h7.15V21.319h-36.8Z" transform="translate(-177.423 -7.201)" fill="#4b3691"/>
    <path id="Path_1069" data-name="Path 1069" d="M25.565,9.381c1.864.195,3.669-.5,5.327.679v24.5a4.233,4.233,0,0,0,4.635,0v-24.5c1.54-1.156,3.319-.468,5.21-.728V14.7H51.421V.244C41.306-.177,17.777-.023,15,.471V14.7H25.565Z" transform="translate(-5.067 0)" fill="#4b3691"/>
    <path id="Path_1070" data-name="Path 1070" d="M82.5,41.306V37.194H78V52.425h4.561c.025-1.25.009-2.522.1-3.786.023-.3.413-.568.633-.85h4.474V42.6c-1.773-.488-3.68.7-5.271-1.3" transform="translate(-26.349 -12.564)" fill="#4b3691"/>
    <rect id="Rectangle_1754" data-name="Rectangle 1754" width="7.71" height="7.121" transform="translate(243.122 14.105)" fill="#4b3691"/>
    <path id="Path_1071" data-name="Path 1071" d="M9.886,32.053c.115-1.587.026-3.284.044-4.972.017-1.629,0-3.258,0-4.886H4.586V32.253H0v15.1H4.635V32.789c1.522-1.142,3.287-.477,5.251-.736" transform="translate(0 -7.497)" fill="#4b3691"/>
    <rect id="Rectangle_1755" data-name="Rectangle 1755" width="5.298" height="9.933" transform="translate(46.354 14.697)" fill="#4b3691"/>
    <path id="Path_1072" data-name="Path 1072" d="M70.815,60.219c-.28.012-.543.412-.815.632v9.933h5.3v-10.6c-1.495,0-2.991-.034-4.483.03" transform="translate(-23.646 -20.329)" fill="#4b3691"/>
    <path id="Path_1073" data-name="Path 1073" d="M363.284,36.167V32.194H356v7.284h7.284Z" transform="translate(-120.258 -10.875)" fill="#4b3691"/>
    <path id="Path_1074" data-name="Path 1074" d="M359.117,51.043c-.276-.221-.547-.624-.83-.632-1.912-.056-3.826-.03-5.792-.03,0-1.553.026-2.843-.029-4.129-.007-.177-.412-.338-.633-.506V43.759c-.274-.221-.544-.626-.824-.632-2.152-.054-4.306-.03-6.46-.03V35.812H329.887V21.344H322.1V57.4l.9.9c5.563.066,5.563.066,6.977-.928.024-4.714-.017-9.5.024-14.272h13.888a4.452,4.452,0,0,1,.7,2.342c-.132,1.816-.039,3.649-.039,5.667h7.284c0,2.04-.028,3.882.03,5.721.009.286.412.56.632.839.17.221.336.63.51.634,2.245.043,4.49.028,6.774.028,0-2.336.026-4.394-.029-6.448-.007-.284-.412-.557-.633-.836m-7.974-4.6,0,0c.019,0,.036,0,.054,0l.632.632a6.35,6.35,0,0,0-.689-.625" transform="translate(-108.806 -7.21)" fill="#4b3691"/>
    <path id="Path_1075" data-name="Path 1075" d="M494.115,51.054c-.275-.221-.545-.626-.824-.633-2.152-.054-4.306-.029-6.46-.029V46.419c.018-1.145-.208-2.338.662-3.311h6.622c.22-.285.633-.569.634-.856.036-6.931.028-13.861.028-20.876H457.1V57.408l.848.848h6.1l.933-.9V43.108h14.568v8.053h7.391v7.178c2.179,0,4.253.025,6.325-.03.289-.008.568-.412.852-.632.109,0,.309.023.316,0a13.05,13.05,0,0,0,0-6.615c-.007-.026-.207,0-.316,0M464.978,28.647h21.794v7.069h-21.7c-.029-1.04-.075-2.207-.091-3.375-.016-1.2,0-2.393,0-3.694" transform="translate(-154.408 -7.221)" fill="#4b3691"/>
    <path id="Path_1076" data-name="Path 1076" d="M41.488,76.194c-.221.174-.625.339-.633.522-.055,1.3-.029,2.6-.029,4.009H25.738a26.4,26.4,0,0,1-.17-3.678c-.032-.3-.414-.569-.634-.853H15V89.985c10.126.421,33.641.266,36.421-.228V76.194H41.488Z" transform="translate(-5.067 -25.738)" fill="#4b3691"/>
    <path id="Path_1077" data-name="Path 1077" d="M12.3,60.852c-.271-.221-.534-.62-.815-.632-1.492-.064-2.988-.03-4.483-.03v10.6h5.3V60.852Z" transform="translate(-2.365 -20.329)" fill="#4b3691"/>
  </g>
</svg>
