<svg id="TechBullion_Logo" data-name="TechBullion Logo" xmlns="http://www.w3.org/2000/svg" xmlns:xlink="http://www.w3.org/1999/xlink" width="318" height="91.823" viewBox="0 0 318 91.823">
  <defs>
    <clipPath id="clip-path">
      <rect id="Rectangle_1763" data-name="Rectangle 1763" width="318" height="91.824" fill="none"/>
    </clipPath>
  </defs>
  <g id="Group_4742" data-name="Group 4742" clip-path="url(#clip-path)">
    <path id="Path_1104" data-name="Path 1104" d="M48.695,0c2.832.466,5.7.785,8.49,1.425A43.637,43.637,0,0,1,76.068,11.1,44.123,44.123,0,0,1,90.629,34.327c3.794,15.384.624,29.327-9.6,41.467A43.443,43.443,0,0,1,52.92,91.321c-16.448,2.215-30.424-2.9-41.568-15.274A44.757,44.757,0,0,1,.5,52.741C.28,51.376.165,49.994,0,48.62V43.262c.073-.455.178-.907.215-1.365A41.664,41.664,0,0,1,3.2,29.223Q12.576,6.69,36.383,1.073C38.656.536,41.011.349,43.328,0Zm4.642,74.609V29.188H66.869c.96-4.189.929-10.042-.049-12.646a2.777,2.777,0,0,0-.374-.048q-20.219,0-40.436-.015a.723.723,0,0,0-.85.7,27.354,27.354,0,0,0-.46,7.99c.142,1.332.369,2.655.57,4.065h13.7V74.633a34.506,34.506,0,0,0,14.367-.024" fill="#4b3691"/>
    <path id="Path_1105" data-name="Path 1105" d="M378.786,70.475c3.626,3.841,4.486,7.675,2.583,11.407-1.935,3.794-5.666,5.631-10.387,5.064V81.821c.608,0,1.224.012,1.841,0a3.618,3.618,0,0,0,3.858-3.527,3.567,3.567,0,0,0-3.768-3.727c-2.914-.067-5.829-.02-8.745-.022h-1.134V56.607h3.177c1.656,0,3.313,0,4.969,0A8.885,8.885,0,0,1,379,70.061c-.079.14-.145.286-.21.414m-10.246-8.717v6.837c.963,0,1.854.048,2.738-.01a3.4,3.4,0,0,0,3.262-3.34,3.287,3.287,0,0,0-3.085-3.47,28.276,28.276,0,0,0-2.915-.017" transform="translate(-161.793 -25.227)" fill="#4b3691"/>
    <path id="Path_1106" data-name="Path 1106" d="M323.317,67.752a41.97,41.97,0,0,1,4.471-1.252,9.708,9.708,0,0,1,10.972,8.842c.248,3.384.045,6.8.045,10.288h-5.73V84.556c0-2.679.038-5.358-.01-8.034-.067-3.737-3.187-6.083-6.482-4.925a4.838,4.838,0,0,0-3.208,4.358c-.055,2.843-.028,5.687-.035,8.53,0,.358,0,.716,0,1.151h-5.774V53.488h5.753Z" transform="translate(-141.528 -23.838)" fill="#4b3691"/>
    <path id="Path_1107" data-name="Path 1107" d="M196.569,62.808v-6.08h22.923v6.016h-8.334V87.088h-6.122V62.808Z" transform="translate(-87.605 -25.282)" fill="#4b3691"/>
    <path id="Path_1108" data-name="Path 1108" d="M258.949,88.339H245.137c.889,3.315,4.293,4.207,7.521,1.963l3.963,2.638c-2.064,3.37-7.818,4.551-11.925,2.492a9.957,9.957,0,1,1,14.252-7.093m-5.21-3.373a4.442,4.442,0,0,0-4.947-3.435,4.086,4.086,0,0,0-3.645,3.435Z" transform="translate(-106.598 -34.138)" fill="#4b3691"/>
    <path id="Path_1109" data-name="Path 1109" d="M505.208,96.519c-7.176-.008-12.045-6.557-9.76-13.125,1.851-5.32,8.187-8.045,13.757-5.917a9.784,9.784,0,0,1,5.676,13,10.269,10.269,0,0,1-9.674,6.046m4.94-9.918a4.908,4.908,0,0,0-4.9-5,5.088,5.088,0,0,0,.03,10.166,4.97,4.97,0,0,0,4.874-5.163" transform="translate(-220.552 -34.205)" fill="#4b3691"/>
    <path id="Path_1110" data-name="Path 1110" d="M543.394,96.094H537.93V77.38c1.365,0,2.741-.024,4.114.025.21.008.442.332.6.554a9.833,9.833,0,0,1,.56.993c.529-.349.995-.7,1.5-.984a8.473,8.473,0,0,1,11.546,3.4,10.01,10.01,0,0,1,1.482,5.164c0,3.165,0,6.33,0,9.554h-5.324v-1.1c0-2.677.011-5.354-.005-8.032a5.166,5.166,0,0,0-2.071-4.406,4.339,4.339,0,0,0-6.693,2.711,9.243,9.243,0,0,0-.239,2.157c-.028,2.512-.011,5.024-.011,7.536Z" transform="translate(-239.738 -34.272)" fill="#4b3691"/>
    <path id="Path_1111" data-name="Path 1111" d="M404.745,77.848h5.468c.016.36.045.709.045,1.058.005,2.743-.02,5.487.012,8.23a4.407,4.407,0,0,0,3.808,4.58,4.32,4.32,0,0,0,4.6-4.486c.047-2.743.015-5.487.017-8.23,0-.357,0-.713,0-1.136h5.563a4.623,4.623,0,0,1,.095.66c0,2.941.039,5.884-.012,8.824a10.225,10.225,0,0,1-9.484,9.685,10.052,10.052,0,0,1-10.161-9.35c-.082-3.1-.034-6.213-.039-9.319a3.18,3.18,0,0,1,.09-.516" transform="translate(-180.337 -34.694)" fill="#4b3691"/>
    <rect id="Rectangle_1759" data-name="Rectangle 1759" width="5.551" height="32.155" transform="translate(247.575 29.63)" fill="#4b3691"/>
    <rect id="Rectangle_1760" data-name="Rectangle 1760" width="5.462" height="32.193" transform="translate(256.65 29.609)" fill="#4b3691"/>
    <path id="Path_1112" data-name="Path 1112" d="M297.747,78.732l-2.476,4.348a5.212,5.212,0,0,0-4.808-1.294,5.35,5.35,0,0,0-3.138,1.947,4.74,4.74,0,0,0,.223,6.031c1.954,2.216,4.64,2.436,7.75.578l2.348,4.184c-4.006,3.138-10.377,2.487-13.969-1.373a9.624,9.624,0,0,1-.053-13.069,10.652,10.652,0,0,1,14.122-1.352" transform="translate(-125.274 -34.165)" fill="#4b3691"/>
    <rect id="Rectangle_1761" data-name="Rectangle 1761" width="5.527" height="18.642" transform="translate(265.73 43.158)" fill="#4b3691"/>
    <rect id="Rectangle_1762" data-name="Rectangle 1762" width="5.511" height="5.987" transform="translate(265.728 31.432)" fill="#4b3691"/>
  </g>
</svg>
