<?xml version="1.0" encoding="UTF-8"?><svg id="Layer_1" xmlns="http://www.w3.org/2000/svg" viewBox="0 0 800 150"><defs><style>.cls-1{fill:#4b3691;}</style></defs><path class="cls-1" d="M163.19,66.04c0-12.06,.08-24.12-.06-36.18-.03-2.73,.67-3.74,3.52-3.58,4.1,.24,8.22,.19,12.33,0,2.35-.1,2.89,.79,2.86,2.97-.12,7.29-.09,14.58-.03,21.87,0,1.21-.73,2.93,.91,3.49,1.11,.38,1.94-.87,2.89-1.55,4.91-3.55,10.56-4.72,16.31-3.02,7.74,2.29,12.59,8.09,13.08,15.88,.78,12.41,.3,24.9,.38,37.36,.01,2.1-.99,2.68-2.97,2.62-3.97-.12-7.97-.27-11.93,.04-3.23,.25-3.75-1.2-3.72-3.91,.1-7.69,.02-15.37,0-23.06,0-1.32,.05-2.67-.14-3.97-.82-5.53-3.07-7.6-7.67-7.52-4.25,.07-6.61,2.76-6.92,8.24-.46,8.19-.16,16.43-.18,24.64q0,5.51-5.61,5.51c-2.92,0-5.88-.31-8.74,.07-3.85,.51-4.38-1.33-4.34-4.52,.12-11.79,.05-23.59,.05-35.39Z"/><path class="cls-1" d="M573.64,55.8c-1.03-5.35,2.53-4.86,6.08-4.69,3.57,.17,7.16,.08,10.74,.02,2.12-.03,3.07,.72,3.06,3.02-.07,16.17-.07,32.33,0,48.5,.01,2.63-1.01,3.52-3.54,3.44-3.97-.12-7.96-.12-11.93,0-2.54,.07-4.69,.28-4.31-3.49,.22-2.24-1.08-1.34-2.23-.56-2.64,1.81-5.2,3.53-8.51,4.42-13.12,3.54-24.82-4.63-29.07-15.47-4.59-11.71-2.47-26.93,7.84-35.59,8.34-7,20.44-8.33,29.28-.84,.6,.51,1.06,1.61,2.57,1.24Zm.29,22.66c0-6.77-4.23-10.91-11.2-10.99-6.58-.07-12.41,5.04-12.12,11.08,.28,5.89,5.84,11.62,11.81,11.38,6.67-.27,11.52-4.84,11.52-11.47Z"/><path class="cls-1" d="M156.32,78.35c0,7.82-.13,15.65,.06,23.47,.08,3.2-1.11,4.26-4.18,4.1-3.44-.18-6.9-.08-10.35-.01-2.07,.04-3.82,.19-4.13-2.77-.2-1.94-1.6-1.52-2.88-.45-7.97,6.72-22.37,4.75-29.57-2.25-7.64-7.44-11.08-18.94-7.81-30.32,2.16-7.51,6.1-13.54,13.19-17.43,8.15-4.47,16.08-4.45,23.74,.72,2.08,1.4,2.96,1.57,3.48-.92,.37-1.78,1.68-1.37,2.79-1.38,4.11-.03,8.23,.09,12.34-.05,2.56-.08,3.43,.79,3.38,3.44-.17,7.95-.06,15.91-.06,23.87Zm-30.32,11.53c6.54,.91,12.22-6.75,12.11-11.27-.18-7.03-5.16-11.64-11.68-12.1-5.48-.39-12.13,5.56-11.97,11.43,.18,6.45,5.16,11.86,11.55,11.94Z"/><path class="cls-1" d="M471.61,78.3c0-8.09,.07-16.18-.04-24.27-.03-2.21,.57-3.02,2.89-2.93,4.51,.17,9.02,.09,13.53,.02,1.96-.03,3.44,.21,3.3,2.71-.04,.75,.02,1.76,.83,2.1,1.06,.45,1.13-.76,1.64-1.27,9.49-9.5,26.36-5.37,30.16,7.34,.81,2.72,1.33,5.32,1.34,8.07,.03,10.74-.06,21.49,.08,32.23,.04,2.79-.49,4.06-3.66,3.84-4.36-.3-8.76-.19-13.13-.03-2.45,.09-3.16-.77-3.13-3.19,.11-9.15,.09-18.3-.01-27.45-.05-4.93-2.34-7.57-6.28-7.67-4.73-.11-7.37,2.15-7.51,7.2-.26,9.01-.29,18.03-.2,27.04,.03,3.03-.79,4.29-4.02,4.09-4.23-.26-8.5-.23-12.73,0-2.54,.13-3.15-.82-3.12-3.15,.1-8.22,.04-16.45,.04-24.67h.03Z"/><path class="cls-1" d="M623.03,56.37c8.81-10.61,24.36-8.28,30.09,2.11,1.56,2.83,2.86,5.78,2.83,9.21-.08,11.67-.05,23.34,.06,35.01,.02,2.42-.43,3.59-3.23,3.42-4.23-.25-8.5-.26-12.73,0-3.29,.2-3.95-1.16-3.91-4.14,.13-9.15,.06-18.3-.1-27.45-.08-4.64-2.36-6.76-6.7-6.76-4.2,0-6.89,2.46-6.96,6.85-.16,9.28-.23,18.56-.13,27.84,.03,2.73-.75,3.77-3.58,3.64-4.5-.2-9.02-.15-13.53-.02-2.02,.06-2.8-.47-2.79-2.61,.07-16.58,.08-33.15,0-49.73,0-2.13,.68-2.74,2.73-2.65,3.58,.15,7.16,.04,10.75,.04q5.59,0,7.21,5.22Z"/><path class="cls-1" d="M48.28,126.17c2.75-6.11,4.59-11.86,7.46-17.19,.83-1.55,.79-3.48,.11-5.05-5.8-13.42-11.74-26.77-17.55-40.19-1.68-3.89-3.07-7.91-4.87-12.56,6.68,0,13.21-.14,19.73,.08,2.15,.07,1.79,2.77,2.37,4.09,3.17,7.26,5.95,14.7,8.55,22.19,.68,1.96,1.67,3.49,3.03,5.15,3.62-9.28,7.28-18.42,10.72-27.64,.98-2.62,2.06-4.22,5.26-4.03,4.63,.28,9.28,.1,13.93,.06,1.98-.02,2.4,.25,1.49,2.44-6.76,16.32-13.55,32.62-20.41,48.9-2.97,7.04-5.94,14.12-8.58,21.31-.58,1.58-1.44,2.45-3.15,2.45-5.83-.01-11.66,0-18.1,0Z"/><path class="cls-1" d="M747.48,83c-5.04,0-10.08-.03-15.12,.03-1.11,.01-2.63-.61-3.23,.7-.69,1.52-.09,3.07,.9,4.41,3.19,4.31,10.98,5.42,15.2,1.91,2.06-1.72,3.65-2.18,6.2-.78,3.04,1.67,6.41,3.02,9.79,3.73,3.54,.74,2.57,2.41,1.35,4.1-2.31,3.22-5.44,5.74-9.04,7.2-10.81,4.39-21.56,4.43-32-1.38-6.83-3.8-10.64-10.16-11.76-17.31-1.98-12.77,.79-24.27,12.92-31.56,7.41-4.45,15.04-5.78,23.69-3.24,8.18,2.4,13.7,7.1,17.3,14.58,2.35,4.89,2.94,10.02,2.86,15.34-.03,2.13-1.11,2.29-2.76,2.27-5.44-.05-10.88-.02-16.31-.02Zm-9.78-10.38c2.11,0,4.22,.06,6.33-.01,2.77-.09,3.98-1.93,2.34-4.04-1.76-2.27-3.94-4-7.31-4.12-3.93-.14-7.14,.88-9.44,3.94-1.68,2.22-.4,4.17,2.54,4.24,1.85,.04,3.69,0,5.54,0Z"/><path class="cls-1" d="M220.27,78.08c-.5-15.69,13.31-28.85,29.49-28.6,16.58,.25,29.32,13.09,28.99,28.97-.34,16.11-11.38,28.19-29.34,28.33-17,.13-29.63-12.84-29.13-28.7Zm40.48,.4c.46-7.59-6.22-11.42-11.46-11.8-5.68-.41-10.7,5.29-10.76,11.32-.06,6.94,4.56,11.85,11.11,11.81,5.92-.04,11.08-5.3,11.11-11.33Z"/><path class="cls-1" d="M311.92,49.53c16.38,.06,29.35,11.92,29.25,28.71-.1,16.59-12.26,28.63-29.16,28.53-18.46-.11-29.42-13.29-29.38-28.68,.04-15.48,12.33-28.48,29.3-28.56Zm-11.2,29c.02,5.82,5.41,11.24,11.2,11.28,6.06,.04,11.48-5.4,11.47-11.52,0-5.79-5.73-11.7-11.33-11.69-5.89,0-11.37,5.77-11.34,11.93Z"/><path class="cls-1" d="M421.18,86.8c0,5.44-.13,10.88,.06,16.31,.09,2.57-.89,3.09-3.22,3-4.37-.17-8.76-.21-13.13,0-2.88,.14-3.56-.98-3.53-3.67,.13-10.61-.02-21.22,.1-31.83,.04-3.1-.71-4.85-4.19-4.23-2.03,.36-2.83-.46-2.71-2.59,.17-3.04,.22-6.11-.01-9.14-.21-2.72,.58-4,3.45-3.51,2.42,.41,3.26-.51,3.63-3.08,.69-4.74,1.23-9.59,4.07-13.8,4.45-6.59,10.65-9.67,18.44-9.73,14.12-.11,11.83,.14,11.9,11.2,.04,5.22,0,5.38-5.45,5.13-5.93-.27-8.15,3.1-9.19,6.82-.56,1.99-.31,3.81,2.57,3.45,.13-.02,.27,0,.4,0,3.38,.28,8.74-1.48,9.74,.75,1.64,3.66,.52,8.55,.6,12.92,.03,1.55-.96,1.62-2.1,1.61-2.12-.02-4.25,0-6.37,0-4.93,.01-5.03,.12-5.04,5.25,0,5.04,0,10.08,0,15.12Z"/><path class="cls-1" d="M704.45,61.12c0,2.51,.9,5.6-.23,7.4-1.42,2.25-3.76-.96-6.1-.9-4.9,.13-9.75-.21-13.36,3.76-2.84,3.11-3.11,7.16-1.9,10.85,1.37,4.18,4.91,6.67,9.23,7.38,3.09,.5,6.31,.63,9.27-1.15,2.17-1.31,3.34-.78,3.21,2.05-.17,3.7-.25,7.43,.03,11.12,.19,2.56-1.28,3.67-3.11,4.23-13.42,4.05-29.88,0-36.45-14.58-6.06-13.46-1.72-31.8,13.29-38.65,8.04-3.67,15.94-3.93,24.14-1.28,1.57,.51,2.14,1.76,2.08,3.42-.08,2.12-.02,4.24-.02,6.36h-.08Z"/><path class="cls-1" d="M351.77,75.99c3.36-8.46,6.45-16.47,9.71-24.4,3.11-7.55,6.49-15,9.55-22.57,.77-1.91,1.66-2.74,3.72-2.7,5.83,.09,11.67,.1,17.51,0,2.56-.04,2.43,.85,1.61,2.82-4.35,10.34-8.54,20.74-12.84,31.1-1.83,4.42-3.71,8.83-5.72,13.18-.5,1.08-.8,2.6-2.61,2.6-6.87-.03-13.75-.01-20.93-.01Z"/><path class="cls-1" d="M442.99,78.18c0-7.83,.11-15.66-.05-23.48-.05-2.66,.52-3.8,3.45-3.62,4.1,.26,8.23,.18,12.34,.02,2.32-.09,3.27,.48,3.26,3.04-.1,16.18-.07,32.37,0,48.55,.01,2.46-.56,3.59-3.32,3.43-3.97-.24-7.97-.26-11.94,0-2.95,.2-3.89-.68-3.82-3.68,.19-8.09,.07-16.18,.07-24.27Z"/><path class="cls-1" d="M369.35,93.68c.02,7.62-4.89,12.54-12.52,12.54-7.11,0-12.25-5.11-12.39-12.04-.13-6.53,5.87-13.03,12.54-12.89,7.3,.15,12.35,5.05,12.37,12.38Z"/><path class="cls-1" d="M463.24,34.61c1.07,5.18-5.27,10.87-10.9,10.87-5.78,0-11.27-5.97-10.85-11,.48-5.81,5.08-10.67,11.03-10.65,5.46,.02,11.92,5.59,10.72,10.78Z"/></svg>