<svg id="Zcrypto_Logo" data-name="Zcrypto Logo" xmlns="http://www.w3.org/2000/svg" xmlns:xlink="http://www.w3.org/1999/xlink" width="292.652" height="69" viewBox="0 0 292.652 69">
  <defs>
    <clipPath id="clip-path">
      <rect id="Rectangle_1757" data-name="Rectangle 1757" width="292.652" height="69" fill="none"/>
    </clipPath>
  </defs>
  <g id="Group_4738" data-name="Group 4738" clip-path="url(#clip-path)">
    <path id="Path_1078" data-name="Path 1078" d="M56.873,0A24.579,24.579,0,0,0,61.28,1.087C75.988,5.008,84.943,14.324,87.267,29.353c2.627,16.994-7.4,34.328-25.385,38.563A48.8,48.8,0,0,1,50.73,69c-.82,0-1.016-.305-.614-.961a13.832,13.832,0,0,1,1.3-1.815Q62.744,53.091,74.09,39.976a26.431,26.431,0,0,0,2.769-3.7c.238-.4.428-.736-.094-1.133-2.219-1.689-4.234-3.641-6.614-5.127-.731-.457-1.222-.621-1.975.247-2.808,3.234-5.8,6.311-8.656,9.5a1.957,1.957,0,0,1-2.961.343,51.051,51.051,0,0,1-6.115-4.544c-.782-.7-.827-1.249-.167-2.111,3.7-4.832,7.929-9.214,11.875-13.836.905-1.06,1.718-2.2,2.66-3.226.988-1.076.727-1.854-.326-2.675-3.184-2.484-6.341-5-9.5-7.516C53.309,4.86,51.6,3.556,50,2.136,48.715,1,48.815.639,50.279,0Z" transform="translate(-18.806 0)" fill="#4b3691"/>
    <path id="Path_1079" data-name="Path 1079" d="M0,32.846c.734-.834.614-1.934.874-2.906C2.917,22.3,6.4,15.531,12.883,10.694c4.084-3.045,3.318-2.558,6.892-.083,3.279,2.271,6.376,4.793,9.416,7.376,2,1.7,2.111,1.8.478,3.9-2.417,3.1-5.019,6.058-7.559,9.063-1.9,2.245-3.824,4.466-5.73,6.7-1.629,1.912-1.634,2.339.383,3.935A161.165,161.165,0,0,0,30.73,51.6c1.006.634,1.009,1.1.39,1.928-3.545,4.758-7.447,9.216-11.393,13.643-1.012,1.135-1.914,1.1-3.118.368C7.339,61.888,2.117,53.586.321,43.015.267,42.7.422,42.3,0,42.1Z" transform="translate(0 -3.286)" fill="#4b3691"/>
    <path id="Path_1080" data-name="Path 1080" d="M135.632,42.334c-4-.1-7.7.227-11.376-.215-1.337-.16-2.918-.12-3.407-1.649-.606-1.895-.895-3.924.282-5.76A3.052,3.052,0,0,1,123.9,33.5q10.037-.014,20.075,0a4.346,4.346,0,0,1,4.224,2.571,4.456,4.456,0,0,1-.673,4.756q-6.569,8.979-13.062,18.014c-.362.5-1.092,1.037-.785,1.635.262.51,1.093.194,1.668.21,3.592.1,7.192-.187,10.777.169,2.293.228,3.044,1.1,3.069,3.379,0,.049,0,.1,0,.149.026,4.238-.592,4.869-4.774,4.869-6.392,0-12.785-.025-19.176.015-1.916.012-3.49-.565-4.359-2.3a4.549,4.549,0,0,1,.654-5.019c4.347-5.948,8.643-11.934,12.952-17.908.34-.471.646-.967,1.141-1.712" transform="translate(-46.082 -12.828)" fill="#4b3691"/>
    <path id="Path_1081" data-name="Path 1081" d="M360.567,72.944c0,3.205.019,6.228-.008,9.25-.014,1.506-.007,3.2-1.7,3.818a6.709,6.709,0,0,1-5.783-.381c-1.045-.6-1.017-1.735-1.016-2.8q.006-9.842,0-19.685c0-3.231-.015-6.462.007-9.693.014-2.1.764-3.221,2.369-3.682,2.159-.619,4.832.015,5.666,1.506.417.745.617.484,1.055.125a7.415,7.415,0,0,1,8.433-.925c8.989,4.686,10.266,14.939,3.125,21.4-3.62,3.275-7.211,3.564-12.156,1.064m8.151-10.635a3.957,3.957,0,0,0-7.9-.515c-.1,2.672,1.391,4.367,3.885,4.427a3.9,3.9,0,0,0,4.012-3.912" transform="translate(-134.835 -18.972)" fill="#4b3691"/>
    <path id="Path_1082" data-name="Path 1082" d="M232.912,69.484c-7.849.223-17.858-5.914-18.512-16.843-.591-9.861,5.135-16.89,14.362-19.007a17.7,17.7,0,0,1,13.9,2.516c1.36.866,2.623,1.887,2.162,3.7a6.167,6.167,0,0,1-3.6,4.486,3.226,3.226,0,0,1-3.076-.763,9.366,9.366,0,0,0-7.27-1.5A9.435,9.435,0,1,0,237.937,59.2c2.733-1.733,3.971-1.414,5.739,1.324a9.4,9.4,0,0,1,.7,1.311c.879,2,.667,2.951-1.093,4.246a16.728,16.728,0,0,1-10.376,3.4" transform="translate(-82.096 -12.7)" fill="#4b3691"/>
    <path id="Path_1083" data-name="Path 1083" d="M313.949,86.543a8.028,8.028,0,0,1-4.391-2.047,2.334,2.334,0,0,1-.647-2.574,70.469,70.469,0,0,1,3.759-8.748,2.792,2.792,0,0,0-.137-2.89q-3.695-6.041-7.3-12.135c-.757-1.28-1.4-2.627-2.065-3.959a2.523,2.523,0,0,1,.72-3.212,7.311,7.311,0,0,1,2.941-1.718c1.881-.563,2.762-.332,3.851,1.3,1.153,1.734,2.13,3.585,3.194,5.38.937,1.581,1.873,3.164,2.841,4.727.246.4.412,1.059.954,1,.443-.048.478-.694.653-1.091,1.275-2.909,2.535-5.825,3.8-8.738.613-1.41,1.379-2.929,3.112-2.79a6.851,6.851,0,0,1,5.245,2.78,2.321,2.321,0,0,1-.043,2.156,74.7,74.7,0,0,1-3.224,7.686c-3.311,7.056-6.428,14.2-9.531,21.346a9.384,9.384,0,0,1-1.373,2.465,2.654,2.654,0,0,1-2.36,1.057" transform="translate(-115.992 -18.76)" fill="#4b3691"/>
    <path id="Path_1084" data-name="Path 1084" d="M181.119,61.872c1.161-2.693,2.256-5.243,3.359-7.79a17.706,17.706,0,0,1,1.837-3.569,3.059,3.059,0,0,1,3.922-1.251,10.825,10.825,0,0,1,2.136,1.054c1.642,1.027,1.971,1.907,1.415,3.767-1,3.346-2.748,6.376-4.134,9.558-2.657,6.1-5.377,12.168-8.075,18.248a16.843,16.843,0,0,1-.964,2.013c-.68,1.106-1.089,2.673-2.759,2.577a6.7,6.7,0,0,1-5.334-2.569c-.677-.925-.314-1.922.084-2.843,1.143-2.642,2.251-5.3,3.521-7.885a2.651,2.651,0,0,0-.153-2.893C172.81,65.174,169.751,60,166.9,54.7c-1.074-1.993-.895-2.781.953-4.141a11.106,11.106,0,0,1,2.324-1.327,2.9,2.9,0,0,1,3.966,1.3c1.874,3.106,3.674,6.257,5.521,9.379a6.308,6.308,0,0,0,1.457,1.957" transform="translate(-63.666 -18.735)" fill="#4b3691"/>
    <path id="Path_1085" data-name="Path 1085" d="M457.613,62.451c.895,5.892-5.73,13.138-12.91,13.137A13.792,13.792,0,0,1,430.936,62.27a13.563,13.563,0,0,1,13.413-13.433c7.57-.048,13.2,5.733,13.265,13.614m-8.678-.222a4.372,4.372,0,0,0-4.449-4.709,4.655,4.655,0,0,0-4.821,4.63,4.547,4.547,0,0,0,4.471,4.631,4.451,4.451,0,0,0,4.8-4.552" transform="translate(-165.042 -18.704)" fill="#4b3691"/>
    <path id="Path_1086" data-name="Path 1086" d="M399.428,57.7c0-1.193-.07-2.392.021-3.579.074-.959-.284-1.144-1.175-1.151-2.446-.018-3.271-.9-3.316-3.373-.011-.646-.01-1.3.037-1.939.178-2.407.795-3.1,3.2-3.188,1.1-.039,1.317-.42,1.261-1.4-.08-1.388-.011-2.785-.022-4.177a2.993,2.993,0,0,1,.354-1.73c1.222-1.84,3.127-1.742,4.971-1.573,1.955.178,2.731.935,3.129,2.647a16.306,16.306,0,0,1,.133,4.755c-.067,1.085.171,1.539,1.364,1.414a10.324,10.324,0,0,1,3.865.252,2.563,2.563,0,0,1,2.092,2.69c.1,5.27-.255,5.716-5.6,5.607-1.5-.03-1.868.419-1.759,1.818.131,1.682.019,3.381.072,5.07.038,1.182.49,1.863,1.91,1.887,3.763.064,5.558,3.542,3.622,6.835a3.19,3.19,0,0,1-2.812,1.423,14.366,14.366,0,0,1-7.006-1.228c-3.05-1.393-3.987-4.146-4.288-7.185-.127-1.28-.021-2.582-.021-3.875h-.035" transform="translate(-151.261 -13.599)" fill="#4b3691"/>
    <path id="Path_1087" data-name="Path 1087" d="M268.753,62.531c0-2.986-.018-5.971.006-8.957.023-2.849,1.166-3.985,4.013-3.995,1.755-.007,3.505-.08,4.489,1.915.336.682.866-.107,1.171-.357a7.461,7.461,0,0,1,7.018-1.5c2.318.607,3.1,1.722,2.8,4.133a11.9,11.9,0,0,1-.315,1.755c-.737,2.614-1.861,3.275-4.529,2.716-.585-.122-1.17-.26-1.762-.331-2.451-.291-3.959.829-4.21,3.305a48.937,48.937,0,0,0-.1,4.919c0,2.039.041,4.079.055,6.118a2.732,2.732,0,0,1-1.96,2.707,6.43,6.43,0,0,1-3.831.235c-2.094-.47-2.836-1.427-2.841-3.56-.008-3.035,0-6.071,0-9.106" transform="translate(-102.926 -18.895)" fill="#4b3691"/>
    <path id="Path_1088" data-name="Path 1088" d="M38.827,6.669a5.036,5.036,0,0,1,3.457,1.407c3.307,2.816,6.907,5.248,10.313,7.934,1.676,1.322,1.849,1.881.447,3.539-3.7,4.376-7.5,8.663-11.243,13-1.2,1.4-2.356,2.834-3.5,4.277-.6.752-.68,1.317.318,2.02,4.321,3.042,8.557,6.2,12.825,9.321,1.673,1.222,1.7,1.242,3.105-.361,2.4-2.735,4.756-5.506,7.149-8.246a8.55,8.55,0,0,1,1.415-1.319,1.231,1.231,0,0,1,1.862.1c.529.648.392,1.192-.161,1.825q-6.1,6.98-12.127,14.02c-3.655,4.283-7.458,8.44-10.893,12.907a2.944,2.944,0,0,1-2.785,1.419c-.43-.053-.914.017-1.16-.5a1.158,1.158,0,0,1,.276-1.362C39.3,65.3,40.5,63.966,41.66,62.6c2.733-3.234,5.8-6.185,8.26-9.646,1.194-1.678,1.146-1.662-.454-2.823-4.963-3.6-9.893-7.25-14.868-10.835-.776-.56-.729-1.038-.291-1.726a41.046,41.046,0,0,1,3.878-4.927c3.512-4.011,7.148-7.92,10.527-12.039,2.352-2.868,2.488-2.358-.553-4.7-2.485-1.916-5.121-3.637-7.658-5.486a26.6,26.6,0,0,1-2.369-2.053c-.358-.333-.884-.771-.7-1.23.222-.57.948-.393,1.4-.46" transform="translate(-13.019 -2.554)" fill="#4b3691"/>
  </g>
</svg>
