<svg id="HldBen_Chair_Icon" xmlns="http://www.w3.org/2000/svg" xmlns:xlink="http://www.w3.org/1999/xlink" width="133" height="133" viewBox="0 0 133 133">
  <defs>
    <clipPath id="clip-path">
      <rect id="Rectangle_1748" data-name="Rectangle 1748" width="133" height="133" transform="translate(0 0)" fill="none"/>
    </clipPath>
  </defs>
  <g id="Group_4717" data-name="Group 4717" clip-path="url(#clip-path)">
    <path id="Path_1036" data-name="Path 1036" d="M66.5,6.049A60.451,60.451,0,1,1,6.049,66.5,60.519,60.519,0,0,1,66.5,6.049M66.5,0A66.5,66.5,0,1,0,133,66.5,66.5,66.5,0,0,0,66.5,0" fill="#6b32de"/>
    <path id="Path_1037" data-name="Path 1037" d="M117.425,110.932a1.862,1.862,0,0,1-1.185-1.53c-.671-5.686-3.323-29.144-1.591-30.773,1.972-1.855,4.638-1.159,7.074,1.044s4.93,7.19,3.856,17.28c-.95,8.929-1.785,21.219-1.643,24.973a1.687,1.687,0,0,1-.88,1.543l-.3.165a.719.719,0,0,1-1.048-.783,15.862,15.862,0,0,0,.219-6.254,7.468,7.468,0,0,0-4.5-5.664" transform="translate(-74.966 -50.972)" fill="#6b32de"/>
    <path id="Path_1038" data-name="Path 1038" d="M247.99,110.932a1.862,1.862,0,0,0,1.185-1.53c.671-5.686,3.323-29.144,1.592-30.773-1.972-1.855-4.639-1.159-7.074,1.044s-4.929,7.19-3.856,17.28c.95,8.929,1.785,21.219,1.643,24.973a1.687,1.687,0,0,0,.88,1.543l.3.165a.719.719,0,0,0,1.048-.783,15.869,15.869,0,0,1-.219-6.254,7.468,7.468,0,0,1,4.5-5.664" transform="translate(-157.449 -50.972)" fill="#6b32de"/>
    <path id="Path_1039" data-name="Path 1039" d="M162.885,183.143a6.611,6.611,0,1,0-12.738,2.907,59.988,59.988,0,0,1,1.043,13.406,1.464,1.464,0,0,1-1.459,1.35H108.286a1.463,1.463,0,0,1-1.459-1.35,59.967,59.967,0,0,1,1.042-13.406,6.614,6.614,0,1,0-5.426,4.133,8.881,8.881,0,0,1-5.124,6.681c-.812,6.842,4.405,16.931,4.405,16.931l27.283-.151,27.283.151s5.217-10.089,4.405-16.931a8.882,8.882,0,0,1-5.124-6.681,6.609,6.609,0,0,0,7.313-7.04" transform="translate(-62.508 -116.323)" fill="#6b32de"/>
    <path id="Path_1040" data-name="Path 1040" d="M132.367,222.388a1.535,1.535,0,0,0,1.53,1.657h39.179a1.536,1.536,0,0,0,1.53-1.657l-.387-4.9a1.537,1.537,0,0,0-.689-1.163l-2.511-1.647a2.294,2.294,0,0,0-1.257-.375H137.21a2.29,2.29,0,0,0-1.256.375l-2.511,1.647a1.536,1.536,0,0,0-.689,1.163Z" transform="translate(-86.986 -140.837)" fill="#6b32de"/>
    <path id="Path_1041" data-name="Path 1041" d="M120.937,286.693a3.077,3.077,0,0,0-.219,2.36c.437,1.223,1.355,2.36.962,3.54a5.609,5.609,0,0,0-.263,2.229h1.923a5.994,5.994,0,0,0,1.093-3.409c-.175-1.617,1.368-4.679,1.368-4.679Z" transform="translate(-79.236 -188.411)" fill="#6b32de"/>
    <path id="Path_1042" data-name="Path 1042" d="M252.133,286.735s1.543,3.061,1.368,4.679a5.994,5.994,0,0,0,1.093,3.409h1.923a5.611,5.611,0,0,0-.262-2.229c-.394-1.18.524-2.316.962-3.54a3.077,3.077,0,0,0-.219-2.36Z" transform="translate(-165.699 -188.412)" fill="#6b32de"/>
    <path id="Path_1043" data-name="Path 1043" d="M178.319,104.561c-.9-6.507-2-8.988.611-19.344a1.732,1.732,0,0,0-.723-1.871,28.608,28.608,0,0,0-29.247,0,1.732,1.732,0,0,0-.723,1.871c2.611,10.356,1.511,12.837.611,19.344-.726,5.249-1.032,14.749-1.122,18.155a1.226,1.226,0,0,0,1.227,1.258h29.26a1.226,1.226,0,0,0,1.227-1.258c-.09-3.407-.4-12.906-1.122-18.155m-21.152,12.36a1.526,1.526,0,1,1,1.527-1.527,1.527,1.527,0,0,1-1.527,1.527m0-12.172a1.527,1.527,0,1,1,1.527-1.527,1.527,1.527,0,0,1-1.527,1.527m0-12.173a1.526,1.526,0,1,1,1.527-1.527,1.527,1.527,0,0,1-1.527,1.527m6.417,18.542a1.526,1.526,0,1,1,1.527-1.526,1.526,1.526,0,0,1-1.527,1.526m0-12.172a1.527,1.527,0,1,1,1.527-1.527,1.527,1.527,0,0,1-1.527,1.527m0-12.173a1.526,1.526,0,1,1,1.527-1.527,1.526,1.526,0,0,1-1.527,1.527M170,116.921a1.526,1.526,0,1,1,1.527-1.527A1.527,1.527,0,0,1,170,116.921m0-12.172a1.527,1.527,0,1,1,1.527-1.527A1.527,1.527,0,0,1,170,104.749m0-12.173a1.526,1.526,0,1,1,1.527-1.527A1.527,1.527,0,0,1,170,92.576" transform="translate(-97.084 -52.132)" fill="#6b32de"/>
  </g>
</svg>
