<svg id="HldBen_Drinks-Icon" xmlns="http://www.w3.org/2000/svg" xmlns:xlink="http://www.w3.org/1999/xlink" width="133" height="133" viewBox="0 0 133 133">
  <defs>
    <clipPath id="clip-path">
      <rect id="Rectangle_1749" data-name="Rectangle 1749" width="133" height="133" transform="translate(0 0)" fill="none"/>
    </clipPath>
  </defs>
  <g id="Group_4719" data-name="Group 4719" clip-path="url(#clip-path)">
    <path id="Path_1044" data-name="Path 1044" d="M66.5,6.049A60.451,60.451,0,1,1,6.049,66.5,60.519,60.519,0,0,1,66.5,6.049M66.5,0A66.5,66.5,0,1,0,133,66.5,66.5,66.5,0,0,0,66.5,0" fill="#6b32de"/>
    <path id="Path_1045" data-name="Path 1045" d="M73.818,147.621c-1.241-4.27,2.187-16.1,2.187-16.1a8.638,8.638,0,0,1,2.167-2.177l25.57-19.186-22.206-5.74L59.331,98.678,72.4,127.851a8.624,8.624,0,0,1,.841,2.954s-2.734,12.011-5.889,15.145-12.676,1.29-12.676,1.29l-.3,1.157,14.8,3.826,14.8,3.826.3-1.157s-9.222-3-10.463-7.271m-4.938-32.8-5.69-12.92L81,106.5l17.809,4.6-5.159,3.727Z" transform="translate(-35.737 -64.85)" fill="#6b32de"/>
    <path id="Path_1046" data-name="Path 1046" d="M210.583,176.3l.3,1.157,14.8-3.826,14.8-3.826-.3-1.157s-9.521,1.844-12.676-1.29-5.889-15.145-5.889-15.145a8.634,8.634,0,0,1,.841-2.954l13.071-29.173-22.206,5.739-22.205,5.739,25.57,19.186a8.636,8.636,0,0,1,2.167,2.177s3.428,11.831,2.187,16.1-10.463,7.271-10.463,7.271m-9.367-40.062-5.16-3.727,17.809-4.6,17.809-4.6-5.69,12.921Z" transform="translate(-125.603 -78.918)" fill="#6b32de"/>
  </g>
</svg>
