<?xml version="1.0" encoding="UTF-8"?>
<svg xmlns="http://www.w3.org/2000/svg" xmlns:xlink="http://www.w3.org/1999/xlink" width="133px" height="133px" viewBox="0 0 133 133" version="1.1">
<g id="surface1">
<path style=" stroke:none;fill-rule:nonzero;fill:rgb(41.960784%,19.607843%,87.058824%);fill-opacity:1;" d="M 66.5 6.050781 C 99.828125 6.050781 126.949219 33.171875 126.949219 66.5 C 126.949219 99.828125 99.828125 126.949219 66.5 126.949219 C 33.171875 126.949219 6.050781 99.828125 6.050781 66.5 C 6.050781 33.171875 33.171875 6.050781 66.5 6.050781 M 66.5 0 C 29.769531 0 0 29.769531 0 66.5 C 0 103.230469 29.769531 133 66.5 133 C 103.230469 133 133 103.230469 133 66.5 C 133 29.769531 103.230469 0 66.5 0 Z M 66.5 0 "/>
<path style=" stroke:none;fill-rule:nonzero;fill:rgb(41.960784%,19.607843%,87.058824%);fill-opacity:1;" d="M 49.421875 79.75 L 36.449219 87.980469 L 65.25 103.929688 L 64.648438 88.179688 Z M 49.421875 79.75 "/>
<path style=" stroke:none;fill-rule:nonzero;fill:rgb(41.960784%,19.607843%,87.058824%);fill-opacity:1;" d="M 69.019531 88.171875 L 68.921875 88.230469 L 69.5 103.609375 L 98.289062 86.289062 L 84.351562 78.941406 Z M 69.019531 88.171875 "/>
<path style=" stroke:none;fill-rule:nonzero;fill:rgb(41.960784%,19.607843%,87.058824%);fill-opacity:1;" d="M 86.519531 75.148438 L 86.519531 75.269531 L 100.140625 82.449219 L 99.539062 49.25 L 86.199219 57.28125 Z M 86.519531 75.148438 "/>
<path style=" stroke:none;fill-rule:nonzero;fill:rgb(41.960784%,19.607843%,87.058824%);fill-opacity:1;" d="M 46.808594 75.871094 L 46.488281 58.089844 L 32.859375 50.441406 L 33.480469 84.820312 L 46.820312 76.351562 Z M 46.808594 75.871094 "/>
<path style=" stroke:none;fill-rule:nonzero;fill:rgb(41.960784%,19.607843%,87.058824%);fill-opacity:1;" d="M 84 53.5 L 84.109375 53.558594 L 97.460938 45.539062 L 68.308594 29.398438 L 68.308594 44.808594 Z M 84 53.5 "/>
<path style=" stroke:none;fill-rule:nonzero;fill:rgb(41.960784%,19.607843%,87.058824%);fill-opacity:1;" d="M 48.550781 54.140625 L 63.980469 44.851562 L 64.050781 44.808594 L 64.050781 29.070312 L 34.828125 46.648438 L 48.351562 54.25 Z M 48.550781 54.140625 "/>
<path style=" stroke:none;fill-rule:nonzero;fill:rgb(41.960784%,19.607843%,87.058824%);fill-opacity:1;" d="M 51.070312 75.789062 L 66.828125 84.519531 L 82.261719 75.230469 L 81.941406 57.699219 L 81.519531 56.988281 L 66.179688 48.5 L 50.738281 57.789062 Z M 51.070312 75.789062 "/>
</g>
</svg>
