<svg id="HldBen_Palms_Icon" xmlns="http://www.w3.org/2000/svg" xmlns:xlink="http://www.w3.org/1999/xlink" width="133" height="133" viewBox="0 0 133 133">
  <defs>
    <clipPath id="clip-path">
      <rect id="Rectangle_1750" data-name="Rectangle 1750" width="133" height="133" transform="translate(0 0)" fill="none"/>
    </clipPath>
  </defs>
  <g id="Group_4721" data-name="Group 4721" transform="translate(0 0)" clip-path="url(#clip-path)">
    <path id="Path_1047" data-name="Path 1047" d="M66.5,6.049A60.451,60.451,0,1,1,6.05,66.5,60.519,60.519,0,0,1,66.5,6.049M66.5,0A66.5,66.5,0,1,0,133,66.5,66.5,66.5,0,0,0,66.5,0" transform="translate(-0.001)" fill="#6b32de"/>
    <path id="Path_1048" data-name="Path 1048" d="M94.929,93.974s-16.706-1.391-24.644,12.81c0,0-.376-12.63,19.157-17.655,0,0-5.408-2.239-15.238,3.719,0,0,12.8-19.912,24.421-7.6,0,0,9.984-7.64,20.553,10,0,0-6.895-8.784-17.259-6.563,0,0,17.259,3.85,13,23.765,0,0,1.093-19.169-19.995-18.471" transform="translate(-46.19 -53.383)" fill="#6b32de"/>
    <path id="Path_1049" data-name="Path 1049" d="M239.475,126.5s14.383-.985,13.948,12.3c-.179-.093,5.122-14.95-10.013-16.674,0,0,4.113-2.288,12.514,1.562,0,0-12.067-14.72-20.208-3.814,0,0-5.811-4.024-12.008,6.1,0,0,1.211-3.871,9.695-3.054,0,0-9.695,3.054-7.635,13.485,0,0-.435-9.08,13.707-9.9" transform="translate(-147.018 -76.133)" fill="#6b32de"/>
    <path id="Path_1050" data-name="Path 1050" d="M149.646,283.361c1.463-6.872,11.428-12.194,23.53-12.194s22.067,5.322,23.53,12.194Z" transform="translate(-98.345 -178.208)" fill="#6b32de"/>
    <path id="Path_1051" data-name="Path 1051" d="M262.212,224.178a105.272,105.272,0,0,0,1.177-11.5l-5.881-.568a93.276,93.276,0,0,1-2.433,9.863Z" transform="translate(-167.631 -139.397)" fill="#6b32de"/>
    <path id="Path_1052" data-name="Path 1052" d="M263.142,189.194l5.584,1.724a89.508,89.508,0,0,0-.229-10.793l-4.344.057a83.52,83.52,0,0,1-1.012,9.012" transform="translate(-172.934 -118.377)" fill="#6b32de"/>
    <path id="Path_1053" data-name="Path 1053" d="M239.431,247.437a84.749,84.749,0,0,1-7.076,16.086l11.653-1.349a123.552,123.552,0,0,0,3.147-13.991Z" transform="translate(-152.701 -162.612)" fill="#6b32de"/>
    <path id="Path_1054" data-name="Path 1054" d="M263.472,141.011l4.169.8c-1.148-11.955-4.444-18.382-4.444-18.382l-1.217.141a72.7,72.7,0,0,1,1.492,17.439" transform="translate(-172.17 -81.117)" fill="#6b32de"/>
    <path id="Path_1055" data-name="Path 1055" d="M140.415,147.069l-4.836-.461a102.888,102.888,0,0,0,.366,10.344l5.885-1.8c-.57-2.614-1.047-5.313-1.415-8.085" transform="translate(-89.092 -96.349)" fill="#6b32de"/>
    <path id="Path_1056" data-name="Path 1056" d="M145.93,187.025c-1.035-3.058-1.982-6.291-2.789-9.676l-6.267.586c.323,3.525.841,7.317,1.612,11.364Z" transform="translate(-89.952 -116.552)" fill="#6b32de"/>
    <path id="Path_1057" data-name="Path 1057" d="M160.981,244.829l-9.6,2.473a155.392,155.392,0,0,0,5.3,14.8h14.589a103.626,103.626,0,0,1-10.289-17.276" transform="translate(-99.488 -160.899)" fill="#6b32de"/>
    <path id="Path_1058" data-name="Path 1058" d="M140.248,107.4a89.515,89.515,0,0,1-.237-18.609h-1.524s-2.566,6.827-2.859,19.11Z" transform="translate(-89.133 -58.35)" fill="#6b32de"/>
    <path id="Path_1059" data-name="Path 1059" d="M153.715,220.818c-1.294-2.824-2.573-5.9-3.763-9.2l-8.061.754c.78,4,1.8,8.234,3.131,12.7Z" transform="translate(-93.248 -139.072)" fill="#6b32de"/>
  </g>
</svg>
