<svg id="svg" version="1.1" xmlns="http://www.w3.org/2000/svg" xmlns:xlink="http://www.w3.org/1999/xlink" width="400" height="400" viewBox="0, 0, 400,400"><g id="svgg"><path id="path0" d="M137.640 30.729 C 126.265 36.542,116.115 52.765,113.308 69.621 C 107.514 104.411,90.564 143.083,72.423 162.901 C 51.495 185.764,49.290 205.045,64.599 231.333 C 67.588 236.467,71.162 242.767,72.541 245.333 C 82.292 263.482,102.856 281.735,118.499 286.128 C 139.895 292.137,144.011 293.631,148.887 297.163 C 160.612 305.657,171.624 329.010,170.237 342.442 C 169.293 351.589,170.898 355.676,176.325 357.943 C 185.795 361.900,193.333 356.347,193.333 345.415 C 193.333 341.344,194.564 336.721,196.890 332.054 L 200.446 324.917 203.547 328.522 C 207.959 333.651,208.746 338.137,206.180 343.519 C 199.150 358.261,206.357 376.000,219.375 376.000 C 228.707 376.000,229.929 374.141,229.574 360.484 C 228.957 336.784,237.604 309.371,249.204 298.255 C 257.874 289.945,261.333 282.333,261.333 271.561 C 261.333 242.761,287.241 196.229,300.474 201.260 C 302.413 201.997,304.000 203.108,304.000 203.727 C 304.000 210.201,320.713 221.333,330.434 221.333 C 349.201 221.333,348.476 201.811,329.598 198.827 C 322.524 197.709,318.667 195.541,318.667 192.683 C 318.667 191.772,317.479 189.516,316.027 187.670 C 310.824 181.056,310.498 178.092,314.204 171.092 C 329.771 141.682,332.092 130.582,325.413 117.489 C 306.507 80.431,166.748 15.856,137.640 30.729 M176.605 104.294 C 198.155 115.229,219.725 140.228,199.894 131.286 C 185.079 124.605,167.685 149.035,175.855 165.050 C 181.358 175.836,178.185 180.446,165.383 180.265 C 136.670 179.858,124.232 157.328,137.082 129.003 C 148.590 103.636,160.560 96.152,176.605 104.294 M253.147 152.024 C 261.084 156.272,268.446 162.725,275.742 171.831 C 278.798 175.645,281.177 177.333,283.496 177.333 C 287.900 177.333,292.000 179.606,292.000 182.047 C 292.000 184.866,286.284 184.500,279.081 181.219 C 269.251 176.740,256.029 181.720,255.986 189.916 C 255.915 203.306,247.542 215.983,236.570 219.311 C 204.284 229.105,201.271 186.215,232.027 154.639 C 239.771 146.689,242.536 146.346,253.147 152.024 M102.886 191.667 C 104.055 193.683,105.990 198.745,107.185 202.914 C 117.678 239.526,194.715 271.436,231.140 254.258 C 245.616 247.431,250.218 256.657,237.995 268.000 C 233.294 272.362,228.359 282.197,226.484 290.937 L 224.984 297.932 221.492 293.820 C 209.775 280.024,195.292 285.298,188.799 305.724 C 187.274 310.524,183.104 306.042,182.108 298.532 C 179.917 282.016,171.776 273.070,152.000 265.446 C 120.834 253.431,101.008 236.119,94.021 214.818 C 88.835 199.009,96.115 179.996,102.886 191.667 M226.276 313.651 C 225.957 315.310,225.684 314.267,225.670 311.333 C 225.655 308.400,225.916 307.043,226.249 308.318 C 226.583 309.593,226.595 311.993,226.276 313.651 " stroke="none" fill="#f903a5" fill-rule="evenodd"></path></g></svg>